<?xml version="1.0" encoding="iso-8859-1"?>
<!-- Generator: Adobe Illustrator 19.0.0, SVG Export Plug-In . SVG Version: 6.00 Build 0)  -->
<svg version="1.1" id="Capa_1" xmlns="http://www.w3.org/2000/svg" xmlns:xlink="http://www.w3.org/1999/xlink" x="0px" y="0px"
	 viewBox="0 0 417.959 417.959" style="enable-background:new 0 0 417.959 417.959;" xml:space="preserve">
<g>
	<g>
		<rect x="354.22" y="195.394" style="fill:#00ACEA;" width="51.722" height="143.673"/>
		<rect x="354.22" y="169.272" style="fill:#D4E1F4;" width="51.722" height="26.122"/>
		<polygon style="fill:#00EFD1;" points="405.943,62.692 405.943,169.272 354.22,169.272 354.22,62.692 367.282,62.692 
			398.106,62.692 		"/>
		<polygon style="fill:#00ACEA;" points="405.943,339.068 379.82,392.358 354.22,339.068 		"/>
		<path style="fill:#D4E1F4;" d="M380.343,25.598c9.81-0.004,17.767,7.945,17.771,17.756c0,0.177-0.003,0.353-0.008,0.53v18.808
			h-36.571V43.884c0-10.099,8.187-18.286,18.286-18.286l0,0H380.343z"/>
		<path style="fill:#00EFD1;" d="M288.914,136.358v224.653c0,17.312-14.035,31.347-31.347,31.347H43.363
			c-17.312,0-31.347-14.035-31.347-31.347V57.99c0-17.312,14.035-31.347,31.347-31.347h130.612v88.816
			c0,11.542,9.356,20.898,20.898,20.898H288.914z"/>
		<path style="fill:#00CEB4;" d="M288.914,132.178v4.18h-94.041c-11.542,0-20.898-9.356-20.898-20.898V26.643h2.612L288.914,132.178
			z"/>
	</g>
	<g>
		<path style="fill:#083863;" d="M231.445,272.194H64.261c-5.771,0-10.449-4.678-10.449-10.449c0-5.771,4.678-10.449,10.449-10.449
			h167.184c5.771,0,10.449,4.678,10.449,10.449C241.894,267.516,237.216,272.194,231.445,272.194z"/>
		<path style="fill:#083863;" d="M153.078,209.5H64.261c-5.771,0-10.449-4.678-10.449-10.449c0-5.771,4.678-10.449,10.449-10.449
			h88.816c5.771,0,10.449,4.678,10.449,10.449C163.527,204.822,158.848,209.5,153.078,209.5z"/>
		<path style="fill:#083863;" d="M231.445,334.888H64.261c-5.771,0-10.449-4.678-10.449-10.449s4.678-10.449,10.449-10.449h167.184
			c5.771,0,10.449,4.678,10.449,10.449S237.216,334.888,231.445,334.888z"/>
		<path style="fill:#083863;" d="M295.184,124.341L183.38,18.807c-1.733-1.939-4.192-3.074-6.792-3.135H43.363
			C19.928,15.936,0.836,34.568,0,57.99v303.02c0.849,23.25,20.1,41.573,43.363,41.273h214.204
			c22.218,0.007,40.235-17.997,40.242-40.215c0-0.353-0.004-0.706-0.014-1.058V132.178
			C298.039,129.318,297.094,126.484,295.184,124.341z M182.857,48.586l84.114,76.8h-72.098c-5.98,0.327-11.209-3.992-12.016-9.927
			V48.586z M257.567,381.386H43.363c-11.732,0.309-21.631-8.669-22.465-20.376V57.99c0.809-11.881,10.559-21.177,22.465-21.42
			h118.596v78.89c0.844,17.479,15.418,31.127,32.914,30.824h82.024v214.727c0.577,10.66-7.597,19.77-18.257,20.347
			C258.283,381.377,257.925,381.387,257.567,381.386z"/>
		<path style="fill:#083863;" d="M409.6,52.766v-8.882c-0.182-7.589-3.159-14.845-8.359-20.376
			c-5.824-5.399-13.479-8.387-21.42-8.359c-16.156-0.291-29.488,12.57-29.779,28.725c0,0.003,0,0.006,0,0.009v8.359h-21.943
			c-2.6,0.061-5.059,1.196-6.792,3.135c-1.933,1.698-2.909,4.236-2.612,6.792v110.759c0,5.771,4.678,10.449,10.449,10.449
			s10.449-4.678,10.449-10.449V73.141h5.224v265.927c0,1.567-0.522,3.135,0.522,4.702l25.6,53.29
			c1.686,3.64,5.396,5.907,9.404,5.747c3.859,0.089,7.381-2.19,8.882-5.747l27.167-53.29c0.753-1.481,1.281-3.066,1.567-4.702
			V62.692C417.638,57.914,414.254,53.895,409.6,52.766z M370.939,43.884c0.276-4.411,3.939-7.845,8.359-7.837
			c2.234,0.148,4.393,0.867,6.269,2.09c1.227,1.679,1.952,3.672,2.09,5.747v8.359h-16.718V43.884z M365.714,73.141h31.347v83.592
			h-31.347V73.141z M365.714,177.631h31.347v5.224h-31.347V177.631z M397.061,203.754v125.388h-31.347V203.754H397.061z
			 M381.388,368.847l-9.404-18.808h18.808L381.388,368.847z"/>
	</g>
</g>
<g>
</g>
<g>
</g>
<g>
</g>
<g>
</g>
<g>
</g>
<g>
</g>
<g>
</g>
<g>
</g>
<g>
</g>
<g>
</g>
<g>
</g>
<g>
</g>
<g>
</g>
<g>
</g>
<g>
</g>
</svg>
