<svg height="491pt" viewBox="-80 0 491 491.58104" width="491pt" xmlns="http://www.w3.org/2000/svg"><path d="m247.871094 295.519531-3.210938 6.359375-42.9375-2.359375-35.851562 23.640625-35.851563-23.640625-42.9375 2.359375-3.210937-6.359375-16.089844-31.847656-38.210938-19.300781 2.359376-42.941406-23.640626-35.847657 23.640626-35.851562-2.359376-42.941407 38.210938-19.296874 19.300781-38.222657 42.9375 2.371094 35.851563-23.640625 35.851562 23.640625 42.9375-2.371094 19.300782 38.222657 38.210937 19.296874-2.359375 42.941407 23.636719 35.851562-23.636719 35.847657 2.359375 42.941406-38.210937 19.300781zm19.070312-129.9375c0-55.820312-45.25-101.070312-101.070312-101.070312-55.820313 0-101.070313 45.25-101.070313 101.070312 0 55.816407 45.25 101.066407 101.070313 101.066407 55.820312.003906 101.070312-45.25 101.070312-101.066407zm0 0" fill="#00efd1"/><path d="m247.871094 295.519531v188.0625l-82-50-82 50v-188.0625l3.210937 6.359375 42.9375-2.359375 35.851563 23.640625 35.851562-23.640625 42.9375 2.359375zm0 0" fill="#00acea"/><path d="m165.871094 64.511719c55.820312 0 101.070312 45.25 101.070312 101.070312 0 55.816407-45.25 101.066407-101.070312 101.066407-55.820313 0-101.070313-45.25-101.070313-101.066407 0-55.820312 45.25-101.070312 101.070313-101.070312zm53.160156 163.519531v-38.960938c-.003906-14.148437-11.46875-25.621093-25.621094-25.628906-6.4375 8.761719-16.664062 13.9375-27.539062 13.9375s-21.101563-5.175781-27.539063-13.9375c-14.152343.007813-25.617187 11.480469-25.621093 25.628906v38.960938zm-24.679688-109.730469c0-15.730469-12.75-28.480469-28.480468-28.480469-15.730469 0-28.480469 12.75-28.480469 28.480469s12.75 28.480469 28.480469 28.480469c15.730468 0 28.480468-12.75 28.480468-28.480469zm0 0" fill="#00acea"/><path d="m219.03125 189.070312v38.960938h-106.320312v-38.960938c.003906-14.148437 11.46875-25.621093 25.621093-25.628906 6.4375 8.761719 16.664063 13.9375 27.539063 13.9375s21.101562-5.175781 27.539062-13.9375c14.152344.007813 25.617188 11.480469 25.621094 25.628906zm0 0" fill="#fedb41"/><path d="m165.871094 89.832031c15.726562 0 28.472656 12.753907 28.46875 28.476563 0 15.726562-12.753906 28.472656-28.480469 28.472656-15.726563-.003906-28.472656-12.753906-28.46875-28.480469.003906-15.726562 12.753906-28.472656 28.480469-28.46875zm0 0" fill="#fedb41"/><g fill="#083863"><path d="m165.871094 274.648438c60.238281 0 109.070312-48.832032 109.070312-109.066407 0-60.238281-48.832031-109.070312-109.070312-109.070312-60.238282 0-109.070313 48.832031-109.070313 109.070312.066407 60.207031 48.859375 109 109.070313 109.066407zm0-202.136719c51.402344 0 93.070312 41.667969 93.070312 93.070312 0 51.398438-41.667968 93.066407-93.070312 93.066407s-93.070313-41.667969-93.070313-93.066407c.058594-51.378906 41.691407-93.015625 93.070313-93.070312zm0 0"/><path d="m23.796875 203.628906-2.214844 40.300782c-.171875 3.171874 1.546875 6.148437 4.382813 7.578124l35.863281 18.117188 14.042969 27.804688v186.152343c0 2.890625 1.5625 5.558594 4.082031 6.972657 2.523437 1.417968 5.613281 1.363281 8.082031-.144532l77.835938-47.460937 77.835937 47.460937c2.46875 1.507813 5.558594 1.5625 8.082031.144532 2.519532-1.414063 4.082032-4.082032 4.082032-6.972657v-186.152343l14.042968-27.804688 35.863282-18.113281c2.835937-1.433594 4.554687-4.40625 4.382812-7.582031l-2.214844-40.296876 22.183594-33.648437c1.761719-2.667969 1.761719-6.132813 0-8.804687l-22.183594-33.644532 2.214844-40.300781c.171875-3.171875-1.546875-6.148437-4.382812-7.582031l-35.863282-18.117188-18.109374-35.871094c-1.441407-2.832031-4.414063-4.550781-7.582032-4.382812l-40.300781 2.226562-33.652344-22.1875c-2.671875-1.761718-6.136719-1.761718-8.808593 0l-33.636719 22.1875-40.300781-2.226562c-3.171876-.171875-6.148438 1.546875-7.582032 4.382812l-18.117187 35.871094-35.859375 18.113282c-2.835938 1.433593-4.554688 4.40625-4.382813 7.582031l2.214844 40.300781-22.183594 33.644531c-1.761719 2.671875-1.761719 6.136719 0 8.808594zm146.238281 223.121094c-2.558594-1.558594-5.773437-1.558594-8.328125 0l-69.835937 42.582031v-159.699219l35.953125-1.976562 33.648437 22.183594c2.667969 1.761718 6.132813 1.761718 8.804688 0l33.644531-22.1875 35.949219 1.976562v159.699219zm-131.425781-292.617188c.945313-1.429687 1.402344-3.128906 1.308594-4.839843l-2.070313-37.71875 33.539063-16.941407c1.527343-.773437 2.765625-2.011718 3.535156-3.535156l16.941406-33.550781 37.71875 2.082031c1.710938.097656 3.410157-.363281 4.84375-1.308594l31.445313-20.738281 31.445312 20.738281c1.429688.945313 3.128906 1.40625 4.84375 1.308594l37.71875-2.082031 16.941406 33.550781c.769532 1.523438 2.007813 2.761719 3.535157 3.535156l33.539062 16.941407-2.070312 37.714843c-.09375 1.714844.363281 3.414063 1.308593 4.84375l20.738282 31.449219-20.734375 31.445313c-.945313 1.429687-1.40625 3.128906-1.3125 4.84375l2.074219 37.714844-33.542969 16.945312c-1.523438.769531-2.761719 2.007812-3.53125 3.53125l-16.945313 33.542969-37.714844-2.074219c-1.714843-.09375-3.414062.363281-4.84375 1.308594l-31.449218 20.738281-31.445313-20.738281c-1.308593-.859375-2.839843-1.320313-4.40625-1.320313-.144531 0-.292969 0-.4375.011719l-37.789062 2.074219-.921875-1.691407-16.019532-31.851562c-.757812-1.519531-1.984374-2.761719-3.5-3.53125l-33.523437-16.941406 2.082031-37.71875c.097656-1.710938-.359375-3.410156-1.300781-4.839844l-20.738281-31.449219zm0 0"/><path d="m165.871094 154.78125c20.144531-.003906 36.46875-16.335938 36.46875-36.476562 0-20.144532-16.328125-36.472657-36.472656-36.472657-20.144532-.003906-36.472657 16.324219-36.476563 36.46875.023437 20.136719 16.34375 36.457031 36.480469 36.480469zm0-56.949219c11.308594 0 20.472656 9.171875 20.46875 20.476563 0 11.308594-9.171875 20.472656-20.480469 20.472656-11.304687-.003906-20.472656-9.171875-20.46875-20.480469.015625-11.304687 9.179687-20.460937 20.480469-20.46875zm0 0"/><path d="m112.710938 235.789062h106.320312c2.078125.050782 4.089844-.75 5.566406-2.214843 1.480469-1.460938 2.300782-3.464844 2.273438-5.542969v-38.960938c.011718-8.859374-3.515625-17.359374-9.796875-23.609374-6.28125-6.246094-14.796875-9.730469-23.65625-9.671876-2.523438-.066406-4.921875 1.082032-6.449219 3.089844-1.574219 2.109375-3.457031 3.960938-5.59375 5.5-11.617188 8.585938-27.992188 6.144532-36.597656-5.460937-1.523438-2.015625-3.921875-3.179688-6.445313-3.128907h-.007812c-8.859375-.058593-17.375 3.425782-23.65625 9.671876-6.285157 6.25-9.808594 14.75-9.796875 23.609374v38.960938c-.027344 2.078125.792968 4.082031 2.269531 5.542969 1.480469 1.464843 3.492187 2.265625 5.570313 2.214843zm8.160156-46.71875c-.019532-8.371093 5.863281-15.597656 14.066406-17.28125 14.558594 15.773438 38.644531 18.097657 55.953125 5.402344 2.148437-1.605468 4.132813-3.414062 5.933594-5.402344 8.199219 1.683594 14.074219 8.910157 14.046875 17.28125v30.71875h-90zm0 0"/></g></svg>